<?xml version="1.0" encoding="utf-8"?>
<svg id="svg2" viewBox="0 0 634.44 194.44" version="1.1" xmlns="http://www.w3.org/2000/svg" xmlns:xlink="http://www.w3.org/1999/xlink">
  <defs id="defs4">
    <linearGradient id="linearGradient3482">
      <stop id="stop3484" style="stop-color:#804400" offset="0"/>
      <stop id="stop3486" style="stop-color:#c38700" offset="0.1956"/>
      <stop id="stop3488" style="stop-color:#dfbf38" offset="0.3081"/>
      <stop id="stop3490" style="stop-color:#f7eb70" offset="0.4257"/>
      <stop id="stop3492" style="stop-color:#d8a820" offset="0.5588"/>
      <stop id="stop3494" style="stop-color:#f7ef70" offset="0.6988"/>
      <stop id="stop3498" style="stop-color:#b37700" offset="0.8457"/>
      <stop id="stop3496" style="stop-color:#f8f070" offset="1"/>
    </linearGradient>
    <linearGradient id="linearGradient3460-973-508">
      <stop id="stop4265" style="stop-color:#b25e00" offset="0"/>
      <stop id="stop4267" style="stop-color:#f5a900" offset="0.1956"/>
      <stop id="stop4269" style="stop-color:#e5cd62" offset="0.4141"/>
      <stop id="stop4271" style="stop-color:#f9f1a0" offset="0.5355"/>
      <stop id="stop4273" style="stop-color:#e3ba47" offset="0.7142"/>
      <stop id="stop4275" style="stop-color:#f9f3a0" offset="0.8231"/>
      <stop id="stop4277" style="stop-color:#f1b618" offset="1"/>
    </linearGradient>
    <radialGradient id="radialGradient4418" spreadMethod="reflect" gradientUnits="userSpaceOnUse" cy="33.855" cx="590" gradientTransform="matrix(1.48 0 0 1.0625 -283.19 184.4)" r="316.72" xlink:href="#linearGradient3482"/>
    <linearGradient id="linearGradient4420" y2="499.92" gradientUnits="userSpaceOnUse" x2="707.64" gradientTransform="translate(0 .0000026172)" y1="123.88" x1="-56.86">
      <stop id="stop3613" style="stop-color:#a75900" offset="0"/>
      <stop id="stop3615" style="stop-color:#f2a700" offset="0.1956"/>
      <stop id="stop3617" style="stop-color:#f8d956" offset="0.3081"/>
      <stop id="stop3619" style="stop-color:#ffff95" offset="0.4257"/>
      <stop id="stop3621" style="stop-color:#f1c23b" offset="0.5588"/>
      <stop id="stop3623" style="stop-color:#ffff95" offset="0.6988"/>
      <stop id="stop3625" style="stop-color:#e09400" offset="0.8457"/>
      <stop id="stop3627" style="stop-color:#ffff95" offset="1"/>
    </linearGradient>
    <radialGradient id="radialGradient4422" gradientUnits="userSpaceOnUse" cy="296.47" cx="44.194" gradientTransform="matrix(2.4029 0 0 2.4029 -62.001 -415.92)" r="10.399" xlink:href="#linearGradient3482"/>
    <radialGradient id="radialGradient4424" gradientUnits="userSpaceOnUse" cy="296.47" cx="44.194" gradientTransform="matrix(2.4029 0 0 2.4029 -62.001 -415.92)" r="10.399" xlink:href="#linearGradient3460-973-508"/>
    <linearGradient id="linearGradient4426" y2="314.23" gradientUnits="userSpaceOnUse" x2="622.96" gradientTransform="translate(-99.596 150.85)" y1="301.06" x1="623.05" xlink:href="#linearGradient3482"/>
    <linearGradient id="linearGradient4432" y2="314.23" gradientUnits="userSpaceOnUse" x2="622.96" gradientTransform="translate(-418.72 -70.916)" y1="301.06" x1="623.05" xlink:href="#linearGradient3482"/>
  </defs>
  <g id="layer1" transform="translate(-22.781 -205.16)">
    <g id="g4407">
      <path id="path4394" style="fill-rule:evenodd;stroke:#382509;fill:url(#radialGradient4418)" d="m60 205.66a6.7089 6.7089 0 0 0 -6.7188 6.7188c0 12.943-10.338 23.281-23.281 23.281a6.7089 6.7089 0 0 0 -6.7188 6.7188v20 100a6.7089 6.7089 0 0 0 6.719 6.71c12.943 0 23.281 10.338 23.281 23.281a6.7089 6.7089 0 0 0 6.719 6.72h20 540a6.7089 6.7089 0 0 0 6.7188 -6.7188c0-12.943 10.338-23.281 23.281-23.281a6.7089 6.7089 0 0 0 6.7188 -6.7188v-100-20a6.7089 6.7089 0 0 0 -6.72 -6.71c-12.943 0-23.281-10.338-23.281-23.281a6.7089 6.7089 0 0 0 -6.72 -6.72h-23-517-20z"/>
      <path id="path3453" style="fill-rule:evenodd;stroke:#382509;fill:url(#linearGradient4420)" d="m60 212.38c0 16.569-13.431 30-30 30v20 100c16.569 0 30 13.431 30 30h20 540c0-16.569 13.431-30 30-30v-100-20c-16.569 0-30-13.431-30-30h-23-517-20z"/>
      <path id="path3808" d="m67.406 220.88-0.281 1.12c-3.5168 13.418-14.082 23.983-27.5 27.5l-1.125 0.28125v1.1562 11.438 91.438 1.1562l1.125 0.28125c13.418 3.5168 23.983 14.082 27.5 27.5l0.28125 1.125h1.1562 11.438 531.44 1.1562l0.28125-1.125c3.5168-13.418 14.082-23.983 27.5-27.5l1.125-0.28125v-1.1562-91.438-11.438-1.1562l-1.125-0.28125c-13.418-3.5168-23.983-14.082-27.5-27.5l-0.28125-1.125h-1.1562-14.438-517-11.438-1.1562zm2.2188 3h10.375 517 13.375c3.9694 13.538 14.587 24.156 28.125 28.125v10.375 90.375c-13.538 3.9694-24.156 14.587-28.125 28.125h-530.38-10.375c-3.964-13.54-14.582-24.16-28.12-28.13v-90.375-10.375c13.538-3.9695 24.156-14.587 28.125-28.125z" style="opacity:0.613;block-progression:tb;text-indent:0;color:#000000;text-transform:none;fill:#703400"/>
      <path id="path4358" style="fill-rule:evenodd;fill:url(#radialGradient4422)" d="m60.811 302.83c0 5.4673-4.4322 9.8995-9.8995 9.8995s-9.8995-4.4322-9.8995-9.8995 4.4322-9.8995 9.8995-9.8995 9.8995 4.4322 9.8995 9.8995z" transform="matrix(1.1339 0 0 1.1339 564.96 -40.557)"/>
      <path id="path3274" style="fill-rule:evenodd;fill:url(#radialGradient4424)" d="m60.811 302.83c0 5.4673-4.4322 9.8995-9.8995 9.8995s-9.8995-4.4322-9.8995-9.8995 4.4322-9.8995 9.8995-9.8995 9.8995 4.4322 9.8995 9.8995z" transform="translate(571.78)"/>
      <rect id="rect4364" style="fill-rule:evenodd;fill:url(#linearGradient4426)" transform="rotate(-15)" height="3.6239" width="16.263" y="451.86" x="514.96"/>
      <path id="path4378" style="fill:url(#radialGradient4422);fill-rule:evenodd" d="m60.811 302.83c0 5.4673-4.4322 9.8995-9.8995 9.8995s-9.8995-4.4322-9.8995-9.8995 4.4322-9.8995 9.8995-9.8995 9.8995 4.4322 9.8995 9.8995z" transform="matrix(1.1339 0 0 1.1339 2.9596 -40.557)"/>
      <path id="path4380" style="fill:url(#radialGradient4424);fill-rule:evenodd" d="m60.811 302.83c0 5.4673-4.4322 9.8995-9.8995 9.8995s-9.8995-4.4322-9.8995-9.8995 4.4322-9.8995 9.8995-9.8995 9.8995 4.4322 9.8995 9.8995z" transform="translate(9.7782)"/>
      <rect id="rect4382" style="fill-rule:evenodd;fill:url(#linearGradient4432)" transform="rotate(30)" height="3.6239" width="16.263" y="230.1" x="195.84"/>
    </g>
  </g>
  <text style="fill: rgb(51, 51, 51); font-family: Arial, sans-serif; font-size: 41px; font-weight: 700; stroke-width: 1.30543px; text-transform: capitalize; white-space: pre; mix-blend-mode: hard-light;" x="51.8" y="112.397">FALL 2021: HALL OF FAME</text>
</svg>